<?xml version="1.0" encoding="UTF-8"?> <svg xmlns="http://www.w3.org/2000/svg" width="172" height="172" viewBox="0 0 172 172" fill="none"><g clip-path="url(#clip0_7524_105445)"><ellipse opacity="0.05" cx="75.7206" cy="148.456" rx="57.328" ry="4.47614" fill="#151417"></ellipse><path d="M21.0999 46.2252L132.58 46.9168C133.413 46.9219 134.034 47.4161 134.027 48.5246L133.987 55.0541L133.525 129.426C133.522 130.065 133.287 130.916 131.955 130.908C130.623 130.9 57.016 130.436 20.1682 130.208C18.8753 130.2 18.3962 129.692 18.4036 128.498C18.4105 127.395 18.8956 81.9468 19.1759 54.3419C19.1988 52.0903 19.1943 50.1149 19.2144 48.1322C19.2274 46.8532 19.4345 46.2149 21.0999 46.2252Z" fill="white"></path><path d="M132.576 46.9167L20.7949 46.2233C19.125 46.213 18.9173 46.8599 18.9041 48.1563C18.8838 50.1659 18.8874 52.3288 18.8643 54.6109L133.985 55.325L134.027 48.5463C134.034 47.4228 133.411 46.9219 132.576 46.9167Z" fill="#151417"></path><path d="M96.5052 91.9913L99.5112 90.2277L106.323 103.097L91.939 99.915L93.5207 95.3446L96.5052 91.9913Z" fill="white"></path><path d="M103.556 88.5729L99.6924 90.0658L106.137 102.345L106.655 102.696L108.75 88.5408L103.556 88.5729Z" fill="#151417"></path><path d="M106.464 103.252L108.911 88.5534C109.269 88.3986 113.477 90.0214 115.069 91.1359C116.661 92.2504 118.771 94.9441 119.925 97.0254C120.848 98.6904 121.286 102.353 121.39 103.976C121.065 105.717 120.18 109.568 119.24 111.04C118.066 112.88 115.095 115.453 113.229 116.608C111.364 117.764 108.407 118.397 106.244 118.339C104.08 118.281 99.9793 116.767 97.4558 114.949C94.9323 113.131 93.1904 109.893 92.3459 107.515C91.6702 105.613 91.9027 101.703 92.1034 99.9855L106.464 103.252Z" fill="white"></path><path d="M115.943 114.759C123.362 108.572 121.781 99.9043 119.194 95.4934C116.161 90.3193 107.432 85.0511 98.4128 90.7246C89.3932 96.3981 91.1114 106.29 93.8508 110.967C96.5902 115.643 106.668 122.492 115.943 114.759Z" stroke="#151417" stroke-width="1.3"></path><path d="M99.5312 90.2241L106.425 103.141" stroke="#151417" stroke-width="1.3"></path><path d="M108.787 88.5686L106.594 103.047C106.576 103.163 106.464 103.239 106.351 103.212L92.0802 99.9026" stroke="#151417" stroke-width="1.3"></path><path d="M103.127 28.2177L152.956 28.5268C153.328 28.5291 153.606 28.8248 153.602 29.4893L153.577 33.4034L153.301 77.9862C153.298 78.3695 153.193 78.8801 152.597 78.8764C152.002 78.8727 119.102 78.6645 102.632 78.5623C102.054 78.5588 101.84 78.2548 101.844 77.5392C101.849 76.8775 102.108 49.6333 102.26 33.0851C102.272 31.7354 102.272 30.5512 102.283 29.3627C102.29 28.5959 102.383 28.2131 103.127 28.2177Z" fill="#600DFF"></path><rect width="51.1219" height="1.34114" rx="0.670569" transform="matrix(0.999994 -0.00335168 0.024599 0.999697 28.9414 65.9824)" fill="#151417"></rect><rect width="34.8634" height="1.34114" rx="0.670569" transform="matrix(0.999994 -0.00335168 0.024599 0.999697 28.9414 73.0728)" fill="#151417"></rect><rect x="32.1445" y="87.531" width="8.08086" height="31.4378" rx="0.2" fill="#600DFF" stroke="#600DFF" stroke-width="1.3"></rect><rect x="43.6191" y="104.587" width="8.08086" height="14.3849" rx="0.2" fill="#600DFF" stroke="#600DFF" stroke-width="1.3"></rect><rect x="55.0957" y="90.5452" width="8.08086" height="28.4277" rx="0.2" fill="#600DFF" stroke="#600DFF" stroke-width="1.3"></rect><rect x="66.5371" y="104.883" width="8.08086" height="13.745" rx="0.2" fill="#600DFF" stroke="#600DFF" stroke-width="1.3"></rect><path d="M114.772 65.641L112.387 61.7444C112.217 61.4693 112.037 61.4001 111.676 61.6146C111.21 61.8909 110.266 62.7005 109.966 62.9911C109.688 63.2611 109.907 63.4532 109.965 63.5642L113.868 69.4497C114.591 70.3777 114.736 70.6503 115.095 70.9272C115.275 71.0667 115.531 71.0643 115.725 70.828C117.045 69.2135 121.919 59.0619 122.55 57.7404C123.067 56.6593 123.284 56.8426 123.555 57.5019C124.49 59.7777 126.825 64.8967 127.327 65.86C127.93 67.0203 128.309 66.6032 128.733 66.0979C129.033 65.74 139.459 49.385 144.65 41.0593L142.028 39.4325C137.737 46.2741 129.074 60.0749 128.745 60.5457C128.417 61.0164 128.182 60.7038 128.105 60.4887C126.75 57.4138 124.192 51.4958 123.677 50.9553C123.293 50.5524 122.821 50.7263 122.607 51.1163C122.51 51.294 115.798 64.6298 115.376 65.453C115.039 66.1115 115.046 66.0141 114.772 65.641Z" fill="white"></path><path d="M144.932 44.391L138.804 40.5294C138.421 40.2217 138.758 39.9805 138.974 39.8983C140.908 38.9204 144.886 36.9021 145.326 36.6524C145.766 36.4027 145.83 36.7229 145.806 36.9142C145.744 39.2938 145.608 44.1206 145.569 44.3908C145.53 44.661 145.128 44.5035 144.932 44.391Z" fill="white"></path><path d="M149.061 17.429L149.062 23.6472" stroke="#151417" stroke-width="1.3" stroke-linecap="round"></path><path d="M162.752 15.033L156.326 24.3974" stroke="#151417" stroke-width="1.3" stroke-linecap="round"></path><path d="M164.475 29.2764L158.519 30.6616" stroke="#151417" stroke-width="1.3" stroke-linecap="round"></path></g><defs><clipPath id="clip0_7524_105445"><rect width="172" height="172" fill="white"></rect></clipPath></defs></svg> 